<?xml version="1.0" standalone="no"?>
<!DOCTYPE svg PUBLIC "-//W3C//DTD SVG 20010904//EN"
 "http://www.w3.org/TR/2001/REC-SVG-20010904/DTD/svg10.dtd">
<svg version="1.0" xmlns="http://www.w3.org/2000/svg"
 width="1228.000000pt" height="1170.000000pt" viewBox="0 0 1228.000000 1170.000000"
 preserveAspectRatio="xMidYMid meet">
<metadata>
Created by potrace 1.16, written by Peter Selinger 2001-2019
</metadata>
<g transform="translate(0.000000,1170.000000) scale(0.100000,-0.100000)"
fill="#000000" stroke="none">
<path d="M4576 9564 c-116 -24 -213 -50 -218 -57 -4 -6 -7 -88 -7 -180 1 -92
0 -169 -2 -171 -2 -2 -161 -34 -353 -72 l-349 -69 -36 -46 c-20 -26 -88 -117
-151 -204 -63 -87 -140 -192 -171 -234 -265 -362 -487 -671 -481 -671 4 0 140
31 302 69 l295 68 3 229 c1 126 6 232 10 235 8 8 570 139 595 139 15 0 17 -21
17 -216 l0 -216 23 5 c19 5 898 168 1285 239 l123 22 91 131 c51 71 117 166
148 210 31 44 123 174 204 289 82 114 151 204 156 200 9 -11 121 -157 864
-1126 323 -422 591 -770 594 -772 9 -5 240 29 248 36 3 4 -209 282 -472 620
-263 337 -563 723 -668 858 -337 434 -470 605 -478 611 -5 3 -113 -14 -241
-37 -127 -23 -389 -69 -582 -103 -192 -34 -360 -66 -373 -72 l-23 -9 2 -243 1
-242 -38 -12 c-22 -6 -49 -12 -61 -12 l-23 -1 0 425 c0 334 -3 425 -12 424 -7
-1 -107 -21 -222 -45z"/>
<path d="M6196 8854 c22 -34 260 -392 529 -797 l490 -736 60 6 c33 3 64 9 68
13 5 4 -52 86 -125 183 -73 96 -198 261 -278 367 -401 531 -763 1006 -772
1015 -6 6 7 -18 28 -51z"/>
<path d="M5986 8550 c-37 -12 -85 -56 -102 -97 -8 -18 -14 -59 -14 -91 l0 -60
85 -21 c46 -11 89 -21 95 -21 6 0 10 53 10 150 0 149 0 150 -22 149 -13 0 -36
-5 -52 -9z"/>
<path d="M6150 8382 l0 -149 73 -17 c39 -10 82 -20 95 -23 21 -5 22 -2 22 48
0 72 -14 118 -53 175 -30 45 -107 114 -128 114 -5 0 -9 -64 -9 -148z"/>
<path d="M3760 8393 c-85 -17 -173 -36 -195 -40 l-40 -9 -3 -226 -2 -227 -53
-11 c-28 -6 -259 -57 -512 -113 l-459 -102 -96 -135 c-53 -74 -208 -292 -345
-485 -137 -192 -342 -482 -457 -644 -115 -161 -207 -295 -205 -297 2 -3 67 21
143 52 832 339 1526 523 2199 585 l130 12 110 101 c61 55 133 122 160 147 51
47 362 333 859 789 152 140 283 256 289 258 15 3 -16 43 462 -603 546 -736
726 -979 736 -989 9 -10 341 -76 348 -70 2 2 -1 9 -6 16 -6 7 -275 378 -598
823 -757 1043 -766 1055 -773 1055 -3 0 -245 -43 -536 -95 -292 -53 -607 -110
-701 -126 -93 -17 -173 -33 -177 -35 -5 -3 -8 -110 -8 -238 l0 -233 -39 -7
c-22 -3 -46 -9 -55 -12 -14 -5 -16 39 -18 443 l-3 449 -155 -33z"/>
<path d="M5870 8050 l0 -160 28 -6 c15 -4 52 -13 82 -20 86 -22 80 -33 80 145
l0 159 -85 21 c-46 11 -89 21 -95 21 -6 0 -10 -56 -10 -160z"/>
<path d="M6150 7981 l0 -159 85 -21 c46 -11 89 -21 95 -21 6 0 10 56 10 160
l0 160 -27 6 c-16 3 -53 12 -84 20 -31 8 -62 14 -68 14 -8 0 -11 -49 -11 -159z"/>
<path d="M5145 7486 c-66 -29 -109 -111 -103 -196 l3 -44 93 -21 92 -22 0 149
0 148 -27 0 c-16 -1 -42 -7 -58 -14z"/>
<path d="M5320 7330 l0 -149 38 -10 c20 -5 57 -15 82 -21 25 -6 54 -14 64 -17
18 -5 19 -1 13 62 -7 71 -43 164 -80 204 -22 23 -101 81 -111 81 -3 0 -6 -67
-6 -150z"/>
<path d="M8435 7350 c-126 -20 -607 -97 -1067 -171 -461 -73 -838 -137 -838
-141 0 -6 440 -629 459 -650 3 -3 82 -18 175 -32 160 -25 171 -25 195 -9 26
17 942 652 1082 750 42 29 81 53 85 53 5 -1 286 -415 624 -921 338 -506 621
-926 629 -932 23 -20 536 -334 540 -331 1 1 -39 65 -91 141 -52 76 -171 251
-264 388 -92 138 -232 345 -311 460 -78 116 -216 320 -307 455 -91 135 -244
362 -341 505 -97 143 -209 308 -248 367 -40 59 -76 107 -82 107 -5 -1 -113
-18 -240 -39z"/>
<path d="M5042 6999 l3 -163 70 -17 c39 -10 80 -21 93 -24 l22 -5 0 162 0 163
-82 19 c-45 10 -87 20 -95 23 -11 4 -13 -23 -11 -158z"/>
<path d="M5965 6890 c69 -140 138 -278 152 -306 l25 -51 76 -16 c41 -9 77 -15
79 -13 5 4 -419 600 -444 626 -8 8 42 -100 112 -240z"/>
<path d="M5322 6928 l3 -162 90 -23 c50 -12 93 -23 98 -23 4 0 6 73 5 162 l-3
162 -70 16 c-38 9 -82 20 -98 23 l-27 8 2 -163z"/>
<path d="M8373 6750 c-80 -19 -123 -81 -123 -179 l0 -60 81 -26 c44 -14 86
-25 94 -25 11 0 13 28 12 147 -2 162 -1 159 -64 143z"/>
<path d="M8530 6572 l0 -148 89 -27 c50 -15 93 -27 97 -27 17 0 -5 142 -30
194 -25 50 -124 156 -147 156 -5 0 -9 -65 -9 -148z"/>
<path d="M3685 6454 c-22 -2 -96 -8 -165 -14 -636 -54 -1420 -273 -2150 -602
-259 -117 -880 -429 -880 -442 0 -1 98 37 218 84 900 360 1687 554 2474 610
188 13 665 13 839 0 1058 -82 2007 -440 2919 -1104 l105 -76 138 0 139 0 -31
38 c-38 49 -259 257 -420 396 -483 416 -1004 718 -1558 902 -287 96 -524 148
-853 189 -118 15 -676 29 -775 19z"/>
<path d="M8252 6259 l3 -163 88 -27 c57 -17 87 -23 88 -15 0 6 1 79 2 162 l2
151 -80 23 c-44 12 -86 25 -93 27 -10 4 -12 -28 -10 -158z"/>
<path d="M8530 6173 l0 -159 83 -27 c46 -15 89 -27 95 -27 9 0 12 43 12 159
l0 159 -67 20 c-38 12 -80 24 -95 27 l-28 7 0 -159z"/>
<path d="M5705 6203 c236 -118 464 -247 667 -379 l96 -62 154 -17 c945 -101
1866 -345 2769 -735 l233 -100 242 2 243 3 -187 112 c-552 330 -1002 546
-1562 748 -435 157 -955 291 -1430 369 -396 65 -831 110 -1180 122 l-185 6
140 -69z"/>
<path d="M9070 6106 c0 -4 35 -82 79 -174 43 -92 97 -208 120 -257 l42 -91 96
-52 c52 -29 97 -51 99 -50 2 2 -27 46 -63 98 -36 52 -127 183 -201 290 -148
213 -172 246 -172 236z"/>
<path d="M3825 5960 c-716 -42 -1499 -280 -2265 -689 -234 -125 -518 -291
-499 -291 3 0 66 23 140 51 592 225 1389 442 2039 554 605 104 1342 172 1920
176 l145 1 -90 30 c-394 130 -928 195 -1390 168z"/>
<path d="M2951 4880 c-227 -32 -432 -157 -566 -345 -153 -216 -195 -496 -110
-746 89 -261 302 -463 570 -541 105 -30 323 -32 425 -4 475 131 739 623 581
1083 -89 258 -313 466 -575 533 -90 23 -238 32 -325 20z m274 -196 c123 -29
253 -112 343 -218 86 -101 152 -281 152 -411 0 -138 -75 -331 -170 -437 -71
-80 -178 -148 -286 -184 -78 -26 -103 -29 -204 -28 -96 0 -128 5 -196 27 -282
93 -470 368 -451 659 27 411 407 688 812 592z"/>
<path d="M950 4790 l0 -90 245 0 245 0 0 -745 0 -745 90 0 90 0 2 743 3 742
243 3 242 2 0 90 0 90 -580 0 -580 0 0 -90z"/>
<path d="M4020 4791 l0 -90 103 -3 102 -3 3 -743 2 -743 88 3 87 3 2 330 c2
182 3 336 3 343 0 9 52 12 228 12 156 0 248 5 293 14 222 47 379 243 379 471
0 215 -123 391 -328 468 -55 20 -76 21 -509 25 l-453 3 0 -90z m927 -120 c70
-31 145 -111 168 -180 23 -69 17 -179 -12 -236 -31 -59 -89 -114 -152 -144
-55 -25 -61 -26 -298 -29 l-243 -4 -1 291 c-1 160 -2 297 -3 304 -1 6 0 16 2
21 2 4 113 6 246 4 225 -4 244 -5 293 -27z"/>
<path d="M6440 4790 l0 -90 245 0 245 0 0 -745 0 -745 90 0 90 0 0 745 0 745
243 0 243 0 3 90 2 90 -580 0 -581 0 0 -90z"/>
<path d="M7720 4790 l0 -90 75 0 75 0 -2 -652 -3 -653 -55 -2 c-30 -1 -63 -2
-72 -2 -16 -1 -18 -12 -18 -91 l0 -90 240 0 241 0 -3 92 -3 92 -70 1 -70 0 -3
653 -2 652 75 0 75 0 0 90 0 90 -240 0 -240 0 0 -90z"/>
<path d="M8320 4045 l0 -835 575 0 575 0 0 93 0 92 -482 0 -483 0 0 280 0 280
423 3 422 2 0 90 0 90 -425 0 -425 0 2 278 3 277 483 3 482 2 0 90 0 90 -575
0 -575 0 0 -835z"/>
<path d="M9590 4790 l0 -89 103 -3 102 -3 3 -743 2 -743 88 3 87 3 3 343 2
343 137 -3 137 -3 192 -270 c106 -148 215 -303 244 -342 l51 -73 105 0 c57 0
104 3 104 6 0 5 -94 141 -373 536 -53 75 -97 141 -97 146 0 4 26 16 58 26 82
26 150 67 208 128 97 101 137 202 136 343 -1 103 -21 173 -75 257 -74 115
-195 197 -323 218 -32 6 -247 10 -476 10 l-418 0 0 -90z m881 -103 c153 -37
261 -200 230 -349 -24 -109 -84 -183 -188 -230 -45 -21 -62 -23 -288 -23
l-240 0 -3 308 -2 307 217 0 c144 0 237 -5 274 -13z"/>
<path d="M5299 3031 c-105 -34 -149 -147 -90 -229 28 -40 69 -58 175 -76 96
-17 138 -43 150 -92 8 -31 -16 -88 -46 -108 -39 -25 -108 -36 -158 -25 -49 11
-110 61 -110 91 0 12 -7 18 -21 18 -18 0 -20 -4 -14 -27 18 -75 99 -127 196
-126 142 2 233 126 169 231 -26 42 -81 66 -185 83 -69 11 -85 17 -113 45 -29
29 -33 39 -30 75 2 35 10 47 41 73 31 25 49 31 101 34 67 4 108 -9 145 -49 12
-13 26 -19 36 -15 23 9 3 40 -47 73 -32 22 -54 28 -107 30 -36 1 -78 -1 -92
-6z"/>
<path d="M10522 3019 c-107 -54 -124 -184 -32 -249 16 -12 65 -28 107 -36 43
-8 89 -17 102 -20 42 -9 81 -58 81 -102 0 -33 -6 -45 -35 -71 -20 -17 -48 -33
-63 -37 -15 -3 -33 -7 -40 -10 -7 -2 -35 1 -62 7 -56 12 -110 55 -110 88 0 14
-6 21 -20 21 -48 0 -1 -90 68 -128 119 -66 302 9 302 125 0 91 -62 141 -200
163 -112 18 -149 47 -150 116 0 67 63 114 154 114 56 0 93 -14 128 -47 16 -16
33 -23 43 -19 23 9 3 40 -47 74 -58 38 -163 43 -226 11z"/>
<path d="M1060 2740 c0 -251 2 -290 15 -290 13 0 15 22 15 135 l0 135 185 0
185 0 0 -135 c0 -113 2 -135 15 -135 8 0 15 8 15 18 1 82 2 284 1 410 -1 128
-3 152 -16 152 -13 0 -15 -22 -15 -135 l0 -135 -185 0 -185 0 0 135 c0 113 -2
135 -15 135 -13 0 -15 -39 -15 -290z"/>
<path d="M2070 3018 c-80 -21 -169 -111 -191 -191 -16 -58 -6 -163 19 -212 48
-94 145 -154 248 -155 104 0 188 43 242 126 146 220 -62 502 -318 432z m185
-52 c240 -111 160 -469 -105 -467 -261 1 -342 348 -108 465 68 34 143 35 213
2z"/>
<path d="M2810 3010 c0 -16 7 -20 35 -20 l35 0 0 -265 c0 -258 1 -265 20 -265
19 0 20 7 20 266 0 226 2 265 14 255 8 -6 51 -61 97 -121 112 -149 111 -149
227 10 48 65 90 119 95 120 4 0 7 -119 7 -265 0 -229 2 -265 15 -265 13 0 15
38 15 285 l0 285 -29 0 c-26 0 -40 -14 -122 -125 -51 -69 -95 -125 -98 -124
-3 0 -48 56 -99 125 l-93 124 -70 0 c-62 0 -69 -2 -69 -20z"/>
<path d="M3762 2743 l3 -288 190 0 c172 0 190 2 193 17 3 16 -12 18 -170 20
l-173 3 -3 112 -3 112 153 3 c136 3 153 5 156 21 3 16 -9 17 -152 17 l-156 0
0 115 0 115 175 0 c168 0 175 1 175 20 0 19 -7 20 -195 20 l-195 0 2 -287z"/>
<path d="M5945 3017 c-3 -7 -4 -136 -3 -287 l3 -275 190 0 c173 0 190 2 193
18 3 16 -10 17 -172 17 l-176 0 0 115 0 115 154 0 c141 0 154 1 152 18 -3 15
-19 17 -154 20 l-152 3 0 114 0 115 175 0 c168 0 175 1 175 20 0 19 -7 20
-190 20 -144 0 -192 -3 -195 -13z"/>
<path d="M6700 3011 c0 -17 6 -21 35 -21 l35 0 2 -267 c3 -230 5 -268 18 -268
12 0 15 22 18 123 l3 122 62 0 62 -1 88 -124 c78 -112 118 -150 117 -112 -1 6
-37 62 -80 122 l-80 110 40 13 c134 45 158 213 42 292 -33 24 -45 25 -199 28
-160 4 -163 3 -163 -17z m330 -36 c46 -24 70 -62 70 -111 0 -36 -6 -51 -34
-81 l-34 -38 -111 -3 -111 -4 0 126 0 126 95 0 c65 0 105 -5 125 -15z"/>
<path d="M7536 2988 c9 -24 52 -146 96 -273 44 -126 84 -238 89 -247 10 -19
34 -24 44 -9 6 10 195 560 195 567 0 2 -8 4 -18 4 -14 0 -34 -51 -102 -249
-47 -137 -89 -249 -94 -250 -10 -2 -22 27 -120 311 -53 155 -66 183 -84 186
-21 3 -21 3 -6 -40z"/>
<path d="M8339 3028 c-9 -31 -5 -38 22 -38 l29 0 0 -250 0 -250 -31 0 c-24 0
-30 -4 -27 -17 3 -15 16 -19 76 -21 66 -3 72 -1 72 17 0 14 -8 21 -27 23 l-28
3 0 245 0 245 28 3 c19 2 27 9 27 23 0 17 -7 19 -70 19 -38 0 -70 -1 -71 -2z"/>
<path d="M9042 3011 c-64 -22 -133 -85 -164 -151 -31 -63 -31 -166 0 -236 57
-126 199 -197 329 -165 67 17 98 38 83 56 -10 12 -16 12 -42 -1 -48 -25 -128
-29 -185 -10 -183 61 -233 293 -92 423 63 58 180 80 256 48 47 -20 65 -19 61
2 -4 24 -82 52 -143 52 -27 0 -74 -8 -103 -18z"/>
<path d="M9672 2743 l3 -288 190 0 c173 0 190 2 193 18 3 16 -10 17 -172 17
l-176 0 0 115 0 115 150 0 c143 0 150 1 150 20 0 19 -7 20 -150 20 l-150 0 0
115 0 115 176 0 c162 0 175 1 172 18 -3 15 -22 17 -196 20 l-192 2 2 -287z"/>
</g>
</svg>
